<?xml version="1.0" standalone="no"?>
<!DOCTYPE svg PUBLIC "-//W3C//DTD SVG 20010904//EN"
 "http://www.w3.org/TR/2001/REC-SVG-20010904/DTD/svg10.dtd">
<svg version="1.0" xmlns="http://www.w3.org/2000/svg"
 width="242.000000pt" height="297.000000pt" viewBox="0 0 242.000000 297.000000"
 preserveAspectRatio="xMidYMid meet">

<g transform="translate(0.000000,297.000000) scale(0.100000,-0.100000)"
fill="#000000" stroke="none">
<path d="M1106 2665 c-31 -247 -143 -513 -364 -866 -167 -265 -207 -344 -242
-477 -25 -94 -27 -267 -5 -351 78 -301 330 -501 630 -501 160 0 300 57 420
171 106 101 168 215 200 367 41 197 -13 409 -165 647 -292 460 -388 658 -434
900 -8 44 -19 100 -24 125 l-8 45 -8 -60z"/>
</g>
</svg>
