<?xml version="1.0" standalone="no"?>
<!DOCTYPE svg PUBLIC "-//W3C//DTD SVG 20010904//EN"
 "http://www.w3.org/TR/2001/REC-SVG-20010904/DTD/svg10.dtd">
<svg version="1.0" xmlns="http://www.w3.org/2000/svg"
 width="956.000000pt" height="276.000000pt" viewBox="0 0 956.000000 276.000000"
 preserveAspectRatio="xMidYMid meet">

<g transform="translate(0.000000,276.000000) scale(0.100000,-0.100000)"
fill="#000000" stroke="none">
<path d="M260 1361 l0 -1121 210 0 210 0 0 950 0 950 144 0 c163 0 473 -16
557 -30 236 -37 362 -232 330 -512 -6 -48 -17 -101 -27 -119 -44 -86 -195
-192 -309 -216 -33 -7 -149 -16 -257 -20 l-198 -6 0 -82 c0 -45 3 -124 7 -175
l6 -93 206 7 c296 9 448 36 585 101 185 88 369 312 396 480 14 87 12 379 -3
451 -32 153 -195 349 -362 436 -206 106 -228 109 -922 115 l-573 5 0 -1121z"/>
<path d="M2550 2471 l-35 -6 -7 -175 c-4 -96 -5 -594 -1 -1106 l6 -931 141 -6
c78 -4 169 -7 204 -7 l62 0 0 1120 0 1120 -167 -1 c-93 -1 -184 -4 -203 -8z"/>
<path d="M4100 2020 l0 -460 -460 0 -460 0 0 -180 0 -180 460 0 460 0 0 -480
0 -480 210 0 210 0 0 1120 0 1120 -210 0 -210 0 0 -460z"/>
<path d="M5020 2471 c-24 -7 -25 -11 -34 -116 -10 -125 9 -1202 24 -1355 23
-233 140 -455 310 -591 91 -73 229 -137 380 -175 108 -28 449 -28 565 0 190
45 306 107 426 226 122 121 214 291 240 438 13 75 28 696 29 1190 l0 392 -200
0 -200 0 0 -307 c-1 -504 -17 -1098 -34 -1190 -45 -255 -250 -406 -551 -407
-214 0 -344 61 -452 211 -104 146 -109 190 -119 1071 l-7 622 -176 -1 c-97 -1
-187 -4 -201 -8z"/>
<path d="M7293 2473 c-18 -2 -33 -8 -33 -12 0 -9 61 -97 135 -196 49 -65 260
-354 399 -544 34 -46 102 -139 151 -206 50 -68 142 -194 205 -280 63 -87 156
-213 205 -280 84 -115 151 -206 303 -414 34 -47 96 -132 137 -187 l74 -102
184 -7 c215 -9 291 -2 278 23 -17 32 -186 269 -498 700 -198 273 -311 437
-306 445 4 6 136 190 293 407 158 217 325 452 373 521 l87 126 -38 7 c-20 3
-118 6 -218 6 l-180 0 -135 -190 c-186 -264 -201 -285 -317 -441 -57 -77 -107
-139 -113 -139 -10 0 -41 41 -362 485 l-202 280 -195 1 c-107 1 -210 -1 -227
-3z"/>
<path d="M7831 1043 c-41 -20 -133 -126 -254 -293 -50 -69 -136 -186 -192
-260 -149 -199 -167 -227 -153 -237 7 -4 105 -10 218 -11 l206 -4 74 109 c40
59 129 185 196 279 148 207 159 226 143 257 -24 46 -94 130 -128 153 -42 28
-64 30 -110 7z"/>
</g>
</svg>
