<?xml version="1.0" standalone="no"?>
<!DOCTYPE svg PUBLIC "-//W3C//DTD SVG 20010904//EN"
 "http://www.w3.org/TR/2001/REC-SVG-20010904/DTD/svg10.dtd">
<svg version="1.0" xmlns="http://www.w3.org/2000/svg"
 width="393.000000pt" height="82.000000pt" viewBox="0 0 393.000000 82.000000"
 preserveAspectRatio="xMidYMid meet">

<g transform="translate(0.000000,82.000000) scale(0.100000,-0.100000)"
fill="#000000" stroke="none">
<path d="M231 749 c-2 -46 -41 -145 -92 -230 -92 -155 -113 -206 -113 -274 0
-144 121 -238 270 -211 48 10 125 86 142 142 27 91 13 143 -78 295 -73 120
-88 151 -111 239 -10 37 -18 54 -18 39z"/>
<path d="M880 755 c0 -5 52 -166 116 -357 l116 -348 56 0 57 0 90 266 c49 146
92 267 96 270 3 2 47 -117 96 -264 l90 -267 58 0 58 0 118 352 c64 193 116
353 114 355 -2 2 -26 1 -54 0 l-50 -4 -92 -276 c-85 -254 -93 -275 -104 -250
-6 15 -49 140 -95 278 l-85 250 -51 0 -50 0 -59 -172 c-33 -95 -75 -220 -96
-277 l-36 -104 -92 275 -92 276 -55 4 c-31 2 -54 -1 -54 -7z"/>
<path d="M2618 653 l-3 -58 -42 -3 -43 -3 0 -45 0 -44 45 0 45 0 0 -172 c0
-193 7 -218 72 -258 41 -25 145 -27 188 -5 35 18 34 13 15 59 -15 36 -28 45
-40 26 -3 -5 -26 -10 -50 -10 -35 0 -48 5 -64 26 -19 24 -21 40 -21 180 l0
154 75 0 75 0 0 45 0 44 -72 3 -73 3 -3 58 -3 57 -49 0 -49 0 -3 -57z"/>
<path d="M2091 584 c-48 -13 -111 -47 -111 -61 0 -3 9 -21 21 -39 l20 -33 37
19 c76 40 186 44 228 9 21 -17 44 -64 44 -89 0 -19 -6 -20 -90 -20 -119 0
-183 -15 -226 -52 -85 -75 -58 -208 53 -254 56 -24 157 -20 215 9 l48 24 0
-24 c0 -21 4 -23 50 -23 l50 0 1 163 c2 261 0 269 -54 325 -56 58 -172 77
-286 46z m239 -333 c0 -71 -63 -121 -152 -121 -40 0 -83 19 -100 44 -13 18 -9
60 7 83 19 26 35 30 153 32 l92 1 0 -39z"/>
<path d="M3124 584 c-58 -21 -115 -73 -144 -130 -34 -67 -36 -198 -3 -259 50
-94 140 -146 252 -146 88 0 142 16 189 57 l37 33 -32 32 c-30 31 -33 32 -50
16 -56 -50 -152 -60 -223 -24 -46 23 -90 76 -90 108 0 18 12 19 215 19 l215 0
0 23 c0 103 -54 204 -135 251 -58 35 -167 44 -231 20z m147 -85 c40 -14 76
-44 95 -81 30 -58 29 -58 -146 -58 -176 0 -176 0 -145 60 36 70 120 104 196
79z"/>
<path d="M3811 585 c-24 -7 -56 -26 -72 -41 l-29 -28 0 37 0 37 -50 0 -50 0 0
-271 0 -270 53 3 52 3 5 175 c5 190 10 206 65 240 17 10 49 21 73 25 l42 7 0
49 c0 44 -2 49 -22 48 -13 0 -43 -6 -67 -14z"/>
</g>
</svg>
